<svg width="160" height="40" viewBox="0 0 160 40" fill="none" xmlns="http://www.w3.org/2000/svg">
<g clip-path="url(#clip0)">
<path d="M1.64312 22.9092C-0.0011885 21.2649 -0.0011884 18.5989 1.64312 16.9546L17.2739 1.32381C18.836 -0.238286 21.3687 -0.238286 22.9308 1.32381V1.32381C24.4929 2.88591 24.4929 5.41857 22.9308 6.98067L4.62042 25.291C4.45598 25.4554 4.18939 25.4554 4.02496 25.291L1.64312 22.9092Z" fill="#2A8CFF"/>
<path d="M11.1706 21.7181C11.335 21.5536 11.6016 21.5536 11.7661 21.7181L22.9309 32.8829C24.493 34.445 24.493 36.9777 22.9309 38.5398V38.5398C21.3688 40.1019 18.8361 40.1019 17.274 38.5398L6.1092 27.3749C5.94477 27.2105 5.94477 26.9439 6.1092 26.7795L11.1706 21.7181Z" fill="#FB005E"/>
<path d="M13.2542 20.2296C13.0898 20.0652 13.0898 19.7986 13.2542 19.6342L17.3461 15.5423C18.8681 14.0202 21.3358 14.0202 22.8579 15.5423V15.5423C24.46 17.1444 24.46 19.742 22.8579 21.3442L18.9111 25.291C18.7466 25.4554 18.48 25.4554 18.3156 25.291L13.2542 20.2296Z" fill="#FFC108"/>
</g>
<path fill-rule="evenodd" clip-rule="evenodd" d="M156.083 18.5333C155.653 18.3266 155.223 18.2225 154.793 18.2225C154.347 18.2225 153.957 18.3147 153.623 18.4975C153.288 18.6809 153.121 18.916 153.121 19.2029C153.121 19.4743 153.26 19.6893 153.539 19.8483C153.817 20.0078 154.196 20.1513 154.673 20.2787L156.465 20.7091C157.659 20.9961 158.547 21.4544 159.128 22.0837C159.709 22.7135 160 23.4588 160 24.3197C160 24.8298 159.881 25.3156 159.642 25.7777C159.403 26.2402 159.064 26.6504 158.627 27.0093C158.189 27.3677 157.663 27.651 157.05 27.8582C156.437 28.0649 155.756 28.169 155.008 28.169C154.244 28.169 153.563 28.0732 152.966 27.882C152.368 27.6904 151.851 27.4397 151.413 27.129C150.975 26.8177 150.605 26.4593 150.302 26.0527C150 25.6466 149.768 25.2364 149.609 24.8215L152.404 23.6261C152.675 24.2321 153.037 24.6822 153.491 24.9769C153.945 25.2722 154.45 25.4192 155.008 25.4192C155.581 25.4192 156.035 25.3157 156.369 25.1085C156.704 24.9013 156.871 24.6543 156.871 24.3673C156.871 24.0488 156.731 23.7898 156.453 23.5904C156.174 23.391 155.693 23.2118 155.008 23.0523L153.36 22.6939C152.993 22.6141 152.615 22.4867 152.225 22.3111C151.835 22.136 151.48 21.9128 151.162 21.6414C150.843 21.3705 150.581 21.0437 150.374 20.6615C150.167 20.2787 150.063 19.8328 150.063 19.3226C150.063 18.7487 150.187 18.2385 150.434 17.7921C150.68 17.3461 151.019 16.9675 151.449 16.6568C151.879 16.346 152.384 16.1067 152.966 15.9394C153.547 15.7721 154.172 15.6882 154.841 15.6882C155.955 15.6882 156.95 15.9073 157.827 16.346C158.702 16.7842 159.347 17.4813 159.761 18.438L157.062 19.5375C156.839 19.0755 156.513 18.7409 156.083 18.5333ZM144.928 10.4762H148.057V27.7862H144.928V10.4762ZM143.112 22.6457H134.298C134.362 23.1237 134.493 23.5345 134.693 23.8773C134.891 24.2202 135.138 24.5072 135.433 24.7376C135.727 24.9692 136.05 25.1365 136.4 25.24C136.751 25.3436 137.108 25.3954 137.475 25.3954C138.192 25.3954 138.785 25.2323 139.255 24.9055C139.724 24.5786 140.094 24.1679 140.365 23.6738L142.969 24.965C142.427 25.9211 141.699 26.6944 140.784 27.2843C139.868 27.8737 138.749 28.169 137.427 28.169C136.536 28.169 135.711 28.0136 134.955 27.7023C134.199 27.3915 133.542 26.9575 132.985 26.3997C132.427 25.8419 131.993 25.1841 131.683 24.4269C131.372 23.6702 131.217 22.8373 131.217 21.9283C131.217 21.0841 131.368 20.2828 131.671 19.5256C131.973 18.7689 132.395 18.107 132.937 17.5414C133.478 16.9758 134.119 16.5252 134.859 16.1901C135.6 15.8555 136.416 15.6882 137.308 15.6882C138.247 15.6882 139.083 15.8436 139.816 16.1544C140.548 16.4651 141.162 16.8955 141.655 17.4456C142.149 17.9956 142.523 18.6451 142.778 19.3941C143.033 20.1435 143.16 20.9567 143.16 21.833C143.16 21.9444 143.16 22.0402 143.16 22.12C143.144 22.2153 143.136 22.3033 143.136 22.3826C143.12 22.4629 143.112 22.5504 143.112 22.6457ZM139.923 19.7287C139.804 19.4743 139.629 19.2351 139.398 19.0118C139.167 18.7886 138.88 18.6052 138.538 18.4618C138.195 18.3183 137.786 18.2463 137.308 18.2463C136.639 18.2463 136.05 18.438 135.54 18.8202C135.031 19.2029 134.672 19.7369 134.465 20.4222H140.126C140.11 20.2155 140.043 19.984 139.923 19.7287ZM126.416 21.068C126.416 20.2233 126.229 19.5976 125.855 19.191C125.481 18.7845 124.935 18.5814 124.219 18.5814C123.789 18.5814 123.41 18.6731 123.084 18.8564C122.757 19.0398 122.479 19.2863 122.248 19.5976C122.017 19.9084 121.842 20.2751 121.723 20.6972C121.603 21.1198 121.543 21.5699 121.543 22.048V27.7862H118.414V16.071H121.352V17.601H121.543C121.909 17.0115 122.403 16.5454 123.024 16.2025C123.645 15.8597 124.354 15.6882 125.15 15.6882C125.882 15.6882 126.527 15.8079 127.085 16.0471C127.642 16.2859 128.1 16.6246 128.458 17.0628C128.817 17.5015 129.087 18.0277 129.27 18.641C129.454 19.2547 129.545 19.9363 129.545 20.6853V27.7862H126.416V21.068ZM112.944 21.068C112.944 20.2233 112.757 19.5976 112.383 19.191C112.009 18.7845 111.463 18.5814 110.747 18.5814C110.317 18.5814 109.938 18.6731 109.612 18.8564C109.286 19.0398 109.007 19.2863 108.776 19.5976C108.545 19.9084 108.37 20.2751 108.251 20.6972C108.131 21.1198 108.071 21.5699 108.071 22.048V27.7862H104.943V16.071H107.88V17.601H108.071C108.438 17.0115 108.932 16.5454 109.552 16.2025C110.173 15.8597 110.882 15.6882 111.678 15.6882C112.411 15.6882 113.056 15.8079 113.613 16.0471C114.171 16.2859 114.628 16.6246 114.987 17.0628C115.345 17.5015 115.615 18.0277 115.799 18.641C115.982 19.2547 116.073 19.9363 116.073 20.6853V27.7862H112.944V21.068ZM99.5683 26.2562H99.3772C99.0106 26.8462 98.5171 27.3123 97.8962 27.6547C97.2753 27.9975 96.5663 28.169 95.7704 28.169C94.2893 28.169 93.1863 27.7147 92.4624 26.8058C91.7374 25.8973 91.3754 24.6864 91.3754 23.1719V16.071H94.5042V22.7892C94.5042 23.6344 94.6912 24.2596 95.0656 24.6662C95.4395 25.0727 95.9853 25.2758 96.702 25.2758C97.1318 25.2758 97.5099 25.1841 97.8366 25.0008C98.1629 24.8179 98.4415 24.5703 98.6724 24.2596C98.9034 23.9488 99.0784 23.5821 99.1981 23.16C99.3177 22.7379 99.3772 22.2873 99.3772 21.8092V16.071H102.506V27.7862H99.5683V26.2562ZM69.6069 21.068C69.6069 20.2549 69.4158 19.6375 69.0336 19.2149C68.6515 18.7927 68.1176 18.5814 67.433 18.5814C67.0031 18.5814 66.621 18.6731 66.2864 18.8564C65.9519 19.0398 65.6692 19.2905 65.4387 19.6095C65.2078 19.9286 65.0327 20.2989 64.9131 20.721C64.7935 21.1437 64.7339 21.5938 64.7339 22.0718V27.7862H61.6051V10.4762H64.7339V15.4733L64.5428 17.601H64.7339C65.0685 17.0431 65.5495 16.5848 66.1792 16.2263C66.8079 15.8674 67.5127 15.6882 68.2931 15.6882C69.8058 15.6882 70.9243 16.1347 71.6488 17.0271C72.3733 17.92 72.7358 19.1392 72.7358 20.6853V27.7862H69.6069V21.068ZM57.4488 31.6236C56.9076 32.1737 56.2583 32.5958 55.5022 32.891C54.7456 33.1857 53.9057 33.3333 52.9823 33.3333C52.1543 33.3333 51.4179 33.2256 50.7726 33.0101C50.1279 32.7952 49.5666 32.516 49.0886 32.1737C48.6111 31.8308 48.2129 31.4522 47.8944 31.0378C47.576 30.623 47.345 30.2091 47.2015 29.7948L50.1875 28.5994C50.4102 29.2209 50.7763 29.7026 51.2864 30.0455C51.7959 30.3883 52.3614 30.5598 52.9823 30.5598C53.9693 30.5598 54.7497 30.2387 55.323 29.598C55.8963 28.9562 56.1832 28.0737 56.1832 26.9492V26.1366H55.9921C55.6254 26.6468 55.1438 27.0492 54.5468 27.3439C53.9497 27.6391 53.2449 27.7862 52.4329 27.7862C51.7322 27.7862 51.0513 27.6443 50.3905 27.3605C49.7297 27.0766 49.1445 26.6701 48.635 26.1412C48.1249 25.6124 47.7111 24.9769 47.3926 24.2352C47.0742 23.493 46.9152 22.6643 46.9152 21.7491C46.9152 20.8339 47.0742 20.0011 47.3926 19.2516C47.7111 18.5017 48.1249 17.8625 48.635 17.3337C49.1445 16.8049 49.7297 16.3983 50.3905 16.1145C51.0513 15.8306 51.7322 15.6882 52.4329 15.6882C53.2449 15.6882 53.9497 15.8358 54.5468 16.1305C55.1438 16.4258 55.6254 16.8282 55.9921 17.3378H56.1832V16.071H59.1686V26.9492C59.1686 27.9375 59.0174 28.8262 58.7149 29.6151C58.4125 30.4044 57.9899 31.0736 57.4488 31.6236ZM55.9201 20.3642C55.7451 19.9571 55.5141 19.6168 55.2277 19.3428C54.9408 19.0693 54.6104 18.8616 54.236 18.7207C53.8622 18.5799 53.4841 18.5094 53.1019 18.5094C52.7193 18.5094 52.3454 18.5799 51.9792 18.7207C51.6126 18.8616 51.2864 19.0729 50.9995 19.3547C50.7131 19.6365 50.4821 19.9767 50.3071 20.3761C50.1316 20.7749 50.044 21.2327 50.044 21.7486C50.044 22.2655 50.1316 22.7234 50.3071 23.1227C50.4821 23.5215 50.7131 23.8582 50.9995 24.1316C51.2864 24.4056 51.6126 24.6133 51.9792 24.7537C52.3454 24.8946 52.7193 24.965 53.1019 24.965C53.4841 24.965 53.8622 24.8946 54.236 24.7537C54.6104 24.6133 54.9408 24.4056 55.2277 24.1316C55.5141 23.8582 55.7451 23.5215 55.9201 23.1227C56.0951 22.7234 56.1832 22.2655 56.1832 21.7486C56.1832 21.2327 56.0951 20.7713 55.9201 20.3642ZM43.4994 14.4928C43.2286 14.4928 42.9697 14.441 42.7232 14.3374C42.4762 14.2338 42.2612 14.0904 42.0784 13.907C41.8951 13.7242 41.7517 13.5124 41.6481 13.2736C41.5445 13.0343 41.4928 12.7712 41.4928 12.4842C41.4928 12.1973 41.5445 11.9347 41.6481 11.6954C41.7517 11.4561 41.8951 11.2453 42.0784 11.062C42.2612 10.8786 42.4762 10.7352 42.7232 10.6316C42.9697 10.528 43.2286 10.4762 43.4994 10.4762C44.0566 10.4762 44.5346 10.6715 44.9328 11.062C45.3306 11.4525 45.5299 11.9264 45.5299 12.4842C45.5299 13.0426 45.3306 13.5165 44.9328 13.907C44.5346 14.2975 44.0566 14.4928 43.4994 14.4928ZM36.1905 10.4762H39.3193V27.7862H36.1905V10.4762ZM45.0758 27.7862H41.9469V16.071H45.0758V27.7862Z" fill="#2D3032"/>
<path d="M89.1181 13.5124C88.9348 13.4647 88.7079 13.4409 88.4371 13.4409C87.9752 13.4409 87.6091 13.5926 87.3382 13.8951C87.0674 14.1981 86.9322 14.6125 86.9322 15.1382V16.071H89.8467V18.7487H86.9322V27.7862H83.8034V18.7487H82.6335H80.9585H78.8982V23.2916C78.8982 23.5624 78.9262 23.8136 78.9821 24.0446C79.0375 24.2756 79.1452 24.4709 79.3047 24.6304C79.5274 24.8853 79.8459 25.0127 80.2601 25.0127C80.4828 25.0127 80.6739 24.9888 80.8334 24.9412C80.9924 24.893 81.1674 24.8298 81.3585 24.7496L81.5739 27.6904C81.2549 27.8018 80.9567 27.8779 80.678 27.9178C80.3989 27.9571 80.0608 27.9773 79.6631 27.9773C79.0738 27.9773 78.544 27.8857 78.0743 27.7023C77.6046 27.5195 77.2105 27.2683 76.892 26.9492C76.1432 26.2319 75.7693 25.2121 75.7693 23.8893V18.7487H73.715V16.071H75.7693V12.4842H78.8982V16.071H80.9585H82.6335H83.8034V14.9232C83.8034 14.2059 83.9106 13.5724 84.1255 13.0224C84.3409 12.4723 84.6469 12.0103 85.0452 11.6359C85.4434 11.2614 85.9131 10.9745 86.4548 10.775C86.9959 10.5756 87.593 10.4762 88.246 10.4762C88.6919 10.4762 89.1062 10.5161 89.4883 10.5958C89.8705 10.6756 90.2128 10.7792 90.5152 10.9066L89.6313 13.704C89.4723 13.6242 89.3009 13.5605 89.1181 13.5124Z" fill="#2D3032"/>
<defs>
<clipPath id="clip0">
<rect width="24.7619" height="40" fill="white"/>
</clipPath>
</defs>
</svg>
